<svg width="175" height="70" viewBox="0 0 175 70" fill="none" xmlns="http://www.w3.org/2000/svg">
<path d="M173.432 23.648C173.981 27.9495 172.19 32.403 168.351 36.7956C164.513 41.1876 158.666 45.471 151.223 49.4017C136.342 57.2612 115.18 63.6589 91.2681 66.711C67.3563 69.763 45.2661 68.8859 28.8875 65.0164C20.6963 63.0812 13.9606 60.4038 9.14229 57.1167C4.32332 53.8292 1.47107 49.9684 0.922033 45.6669C0.372998 41.3654 2.16402 36.9119 6.00271 32.5193C9.84091 28.1273 15.6881 23.8439 23.1306 19.9132C38.0121 12.0537 59.1738 5.65596 83.0856 2.60389C106.997 -0.448177 129.088 0.428932 145.466 4.29844C153.657 6.23365 160.393 8.91103 165.211 12.1981C170.03 15.4857 172.883 19.3465 173.432 23.648Z" stroke="#24DDD8"/>
</svg>
